<svg width="189" height="189" viewBox="0 0 189 189" fill="none" xmlns="http://www.w3.org/2000/svg">
<g id="Group 35">
<circle id="Ellipse 9" cx="94.5" cy="94.5" r="94.5" fill="#D0EBFC"/>
<path id="Vector" d="M79.0392 45L76.0143 45.7551C76.2972 55.9329 76.9718 66.572 76.5584 75.8641C76.1231 85.722 74.6216 94.2525 69.3989 99.0835V145H120.32V99.0835C115.098 94.2525 113.596 85.722 113.161 75.8641C112.748 66.572 113.422 55.9329 113.705 45.7551L110.68 45C110.441 49.8049 109.527 55.0146 107.525 59.4169C105.175 64.5918 100.953 68.8352 94.8597 68.8352C88.7665 68.8352 84.5448 64.5918 82.1945 59.4169C80.1925 55.0146 79.2785 49.8049 79.0392 45ZM82.9997 45.7247C83.3044 49.8985 84.1748 54.316 85.7634 57.7979C87.7655 62.198 90.5074 64.9182 94.8597 64.9182C99.2119 64.9182 101.954 62.198 103.956 57.7979C105.544 54.316 106.415 49.8985 106.72 45.7247C101.584 48.2642 98.3415 49.6852 94.8597 49.6852C91.3778 49.6852 88.1354 48.2642 82.9997 45.7247ZM72.119 46.7235L68.9854 47.5069C69.0724 55.6935 69.8123 64.6788 69.3989 73.0569C68.9636 81.6527 67.2663 89.7261 62 95.4494V145H65.4818V97.2773L66.2217 96.6898C70.3128 93.382 72.2061 85.635 72.6413 75.6901C73.033 66.9637 72.4237 56.7272 72.119 46.7235ZM117.6 46.7235C117.296 56.7272 116.686 66.9637 117.078 75.6901C117.513 85.635 119.406 93.382 123.498 96.6898L124.238 97.2773V145H127.719V95.4494C122.453 89.7261 120.756 81.6527 120.32 73.0569C119.907 64.6788 120.647 55.6935 120.734 47.5069L117.6 46.7235ZM103.434 87.7676C105.479 87.7676 107.09 88.3769 108.286 89.5956C109.483 90.8142 110.071 92.4463 110.071 94.4701C110.071 95.8193 109.744 97.125 109.113 98.3872C108.482 99.6493 107.503 100.933 106.219 102.239C104.413 104.089 103.173 105.394 102.541 106.199C101.91 107.005 101.453 107.81 101.17 108.659H110.397V112.902H96.4918V109.333C96.9488 107.984 97.6234 106.635 98.4938 105.286C99.3643 103.915 100.626 102.369 102.302 100.607C103.586 99.2359 104.435 98.2783 104.826 97.7343C105.218 97.212 105.523 96.7115 105.74 96.211C105.958 95.7105 106.067 95.21 106.067 94.7095C106.067 93.8173 105.849 93.1427 105.414 92.6422C104.957 92.1416 104.304 91.8805 103.455 91.8805C102.607 91.8805 101.976 92.1852 101.519 92.7727C101.062 93.3603 100.779 94.2307 100.648 95.4276L96.6659 95.1447C96.8835 92.7292 97.5798 90.9012 98.7332 89.6609C99.8865 88.3987 101.453 87.7676 103.434 87.7676ZM86.8297 88.1593H91.269V103.806H93.9239V107.636H91.269V112.902H87.5043V107.636H78.4516V103.762L86.8297 88.1593ZM87.6131 92.6422C87.3738 93.3168 86.9385 94.296 86.2857 95.6017L81.7811 103.806H87.5043V96.2545C87.5043 95.6017 87.5043 94.8836 87.5261 94.1219C87.5696 93.3603 87.5914 92.8598 87.6131 92.6422Z" fill="#41AEF1"/>
</g>
</svg>
