<svg width="189" height="189" viewBox="0 0 189 189" fill="none" xmlns="http://www.w3.org/2000/svg">
<g id="Group 38">
<circle id="Ellipse 9" cx="94.5" cy="94.5" r="94.5" fill="#D0EBFC"/>
<path id="Vector" d="M66.3281 45L62.4228 46.4174C63.8471 50.3204 64.5133 54.267 62.9512 58.2067C63.9849 59.3002 64.9957 60.3799 66.0065 61.4366C68.878 55.8291 68.1199 49.9161 66.3281 45ZM60.4013 61.5285C58.8392 62.1258 57.4562 62.8839 56.2042 63.7568C62.4458 70.6025 67.7294 77.9077 70.8536 84.9142C73.7711 91.5072 74.8508 98.0773 72.5076 103.545L123.001 140.047C129.318 139.726 133.407 138.187 136.21 136.027C139.15 133.776 140.827 130.767 142.044 127.206C141.378 126.471 140.643 125.759 139.839 125.047C133.935 126.08 128.767 124.909 124.471 122.198C119.991 119.395 116.476 115.054 113.49 110.023C107.862 100.535 104.071 88.4289 100.235 78.436C90.0124 79.4698 82.5235 78.0455 76.6426 75.174C69.6131 71.7282 64.9957 66.4216 60.4013 61.5285ZM53.0685 66.4675C52.0187 67.5932 51.0814 68.8337 50.2338 70.166C47.8079 74.0024 46.1447 78.6658 44.7227 83.4669L69.0388 101.041C70.3482 97.1124 69.5672 92.1964 67.0632 86.5912C64.1917 80.1819 59.1148 73.1295 53.0685 66.4675ZM107.954 77.2645C106.759 77.4942 105.611 77.7009 104.462 77.8847C105.312 80.113 106.162 82.4102 107.012 84.7304L112.985 87.7398C111.4 84.0412 109.837 80.5035 107.954 77.2645ZM42.4163 86.9128C41.7915 87.579 41.3872 88.2681 41.1781 88.9803C40.8956 89.8992 40.9323 90.9099 41.4101 92.1504L96.2838 127.62C101.292 130.836 105.794 133.5 109.883 135.683L42.4163 86.9128ZM109.102 90.4275C110.687 94.6314 112.364 98.7894 114.225 102.626L121.852 106.003C119.279 101.845 117.303 97.7097 115.535 93.6666L109.102 90.4275ZM117.418 108.53C120.106 112.94 123.161 116.501 126.676 118.706C129.203 120.291 131.937 121.21 135.13 121.302C131.73 118.454 128.904 115.513 126.492 112.527L117.418 108.53ZM144.939 131.134C143.584 134.19 141.677 137.061 138.736 139.312C136.118 141.311 132.764 142.804 128.468 143.585C132.488 144.711 135.635 145.078 138.024 144.986C141.447 144.849 143.4 143.907 144.594 142.965C145.789 142.023 146.248 141.081 146.455 140.622C147.259 138.83 147.19 136.05 145.881 132.972C145.628 132.375 145.307 131.755 144.939 131.134Z" fill="#41AEF1"/>
</g>
</svg>
