<svg width="189" height="190" viewBox="0 0 189 190" fill="none" xmlns="http://www.w3.org/2000/svg">
<g id="Group 39">
<circle id="Ellipse 9" cx="94.5" cy="94.5" r="94.5" fill="#D0EBFC"/>
<g id="Group 37">
<circle id="Ellipse 9_2" cx="94.5" cy="95.5" r="94.5" fill="#D0EBFC"/>
<path id="Vector" d="M49.37 46C48.4714 46 47.5996 46.31 47.0065 46.838C46.4111 47.366 46 48.0782 46 49.37V79.7003H60.5585C60.4237 77.3862 60.3114 75.0721 60.1991 72.9602H52.7401V49.37C52.7401 48.0782 52.3289 47.366 51.7335 46.838C51.1404 46.31 50.2687 46 49.37 46ZM139.237 46C138.339 46 137.463 46.31 136.878 46.838C136.272 47.366 135.867 48.0782 135.867 49.37V72.9602H129.06C129.195 75.0946 129.352 77.4087 129.509 79.7003H142.608V49.37C142.608 48.0782 142.203 47.366 141.596 46.838C141.012 46.31 140.136 46 139.237 46ZM64.0858 69.4554C64.4902 77.7007 65.1193 88.1254 65.5462 98.7971L65.9506 98.3927C68.4444 95.9663 71.455 93.2253 75.162 93.113C77.0717 93.0681 78.7342 93.8544 80.0373 94.843C81.3404 95.8315 82.3738 97.0447 83.3849 98.1681C85.3619 100.437 87.0245 102.1 88.5972 102.19C90.1474 102.279 91.8773 100.954 94.0342 99.0667C96.1685 97.157 98.7073 94.7082 102.347 94.843C106.413 95.0227 108.952 98.213 111.176 100.662C112.3 101.875 113.333 102.953 114.299 103.627C115.243 104.302 115.984 104.549 116.838 104.459C118.411 104.257 121.399 101.65 123.533 98.7522C124.769 97.0896 125.757 95.4496 126.386 94.3487C125.847 85.3395 125.241 76.7571 124.769 69.4554C104.324 70.5787 84.1263 70.3316 64.0858 69.4554ZM75.2968 97.157C73.9712 97.202 71.0056 99.1117 68.7814 101.291C67.5008 102.527 66.4224 103.74 65.7484 104.594C65.8607 108.278 65.9281 111.963 65.9506 115.557C66.2651 115.288 66.5572 115.018 66.8717 114.749C69.8598 112.165 73.4994 109.267 77.6109 109.671C79.4756 109.873 80.9135 110.997 81.902 112.21C82.8906 113.401 83.5871 114.771 84.2386 116.007C84.9126 117.265 85.5417 118.388 86.1258 119.107C86.71 119.804 87.1144 120.051 87.6536 120.073C88.3725 120.118 88.9566 119.849 89.8104 119.062C90.6641 118.253 91.5628 116.973 92.5289 115.602C93.4949 114.232 94.506 112.749 95.809 111.536C97.0447 110.39 98.7073 109.469 100.662 109.491C100.774 109.491 100.909 109.491 101.044 109.514C103.201 109.716 104.863 111.042 105.964 112.524C107.087 114.007 107.829 115.692 108.57 117.287C109.312 118.86 110.031 120.343 110.749 121.309C111.468 122.275 112.008 122.634 112.794 122.702C113.827 122.792 115.378 122.297 117.04 121.242C118.703 120.163 120.455 118.613 122.005 117.018C124.791 114.142 126.836 111.311 127.24 110.749C127.105 107.559 126.948 104.346 126.791 101.156C124.409 104.346 121.466 107.986 117.332 108.458C115.265 108.705 113.423 107.964 111.963 106.93C110.502 105.919 109.334 104.616 108.188 103.38C105.942 100.909 103.987 98.9544 102.167 98.887C100.617 98.8196 98.8645 100.19 96.7077 102.077C94.5734 103.987 92.0121 106.436 88.3725 106.234C84.5981 106.031 82.3064 103.088 80.3294 100.842C79.3633 99.7183 78.4197 98.7073 77.5884 98.0557C76.7347 97.4042 76.0607 97.1346 75.2968 97.157ZM100.415 113.558C99.8081 113.558 99.2914 113.827 98.55 114.501C97.7187 115.288 96.7976 116.546 95.854 117.916C94.8879 119.287 93.8769 120.77 92.5738 122.005C91.2707 123.219 89.4958 124.252 87.384 124.117C85.5192 123.982 84.0364 122.904 83.0254 121.713C82.0368 120.523 81.3404 119.152 80.6664 117.916C80.0148 116.658 79.3858 115.512 78.7792 114.771C78.1725 114.03 77.7457 113.76 77.2065 113.715C75.6563 113.535 72.2188 115.445 69.5453 117.804C68.0849 119.085 66.8268 120.365 65.9506 121.286C65.9056 127.06 65.681 132.475 65.2092 137.215C90.1025 135.126 108.368 141.147 127.038 146C127.734 137.53 127.779 127.442 127.465 116.995C126.701 117.894 125.847 118.86 124.904 119.826C123.219 121.579 121.286 123.308 119.22 124.634C117.13 125.96 114.883 126.948 112.435 126.746C110.278 126.544 108.615 125.218 107.514 123.735C106.391 122.253 105.65 120.568 104.908 118.972C104.167 117.4 103.448 115.917 102.729 114.951C102.01 113.985 101.471 113.625 100.684 113.558C100.594 113.558 100.505 113.535 100.415 113.558Z" fill="#41AEF1"/>
</g>
</g>
</svg>
