<svg width="189" height="189" viewBox="0 0 189 189" fill="none" xmlns="http://www.w3.org/2000/svg">
<g id="Group 36">
<circle id="Ellipse 9" cx="94.5" cy="94.5" r="94.5" fill="#D0EBFC"/>
<path id="Vector" d="M145 70H135V45H125V56.7L95 69.55L65 56.7V45H55V70H45V80H55.25C56.5 91.25 65.95 100 77.5 100C84.6 100 90.9 96.65 95 91.5C99.15 96.65 105.4 100 112.5 100C124.05 100 133.5 91.25 134.75 80H145V70ZM77.5 90C74.1848 90 71.0054 88.683 68.6612 86.3388C66.317 83.9946 65 80.8152 65 77.5V67.5L90 78.25C89.5 84.8 84.15 90 77.5 90ZM125 77.5C125 80.8152 123.683 83.9946 121.339 86.3388C118.995 88.683 115.815 90 112.5 90C105.85 90 100.5 84.8 100 78.25L125 67.5V77.5ZM45 110V120H50C64.85 120 77.15 130.85 79.55 145H110.45C112.85 130.85 125.15 120 140 120H145V110H45ZM102.95 135H87.05C84.7144 129.253 81.0875 124.12 76.45 120H113.55C108.95 124.1 105.3 129.2 102.95 135Z" fill="#41AEF1"/>
</g>
</svg>
